<?xml version="1.0" encoding="utf-8"?>
<!-- Generator: Adobe Illustrator 16.0.0, SVG Export Plug-In . SVG Version: 6.00 Build 0)  -->
<!DOCTYPE svg PUBLIC "-//W3C//DTD SVG 1.1//EN" "http://www.w3.org/Graphics/SVG/1.1/DTD/svg11.dtd">
<svg version="1.1" id="Layer_1" xmlns="http://www.w3.org/2000/svg" xmlns:xlink="http://www.w3.org/1999/xlink" x="0px" y="0px"
	 width="1294.565px" height="1081.261px" viewBox="0 0 294.565 181.261" enable-background="new 0 0 294.565 181.261"
	 xml:space="preserve">
<path fill-rule="evenodd" clip-rule="evenodd" fill="#DBDA48" d="M25.421,58.923c2.212-2.397,4.372-4.712,6.493-7.062
	c0.391-0.432,0.576-0.357,0.94,0c2.653,2.611,5.317,5.208,8,7.789c0.351,0.336,0.421,0.491,0.033,0.87
	c-1.972,1.932-3.924,3.888-5.847,5.868c-0.434,0.448-0.641,0.223-0.981-0.076c-1.797-1.572-3.604-3.128-5.417-4.68
	C27.516,60.669,26.375,59.722,25.421,58.923z"/>
<path fill-rule="evenodd" clip-rule="evenodd" fill="#DBDA48" d="M270.483,54.811c1.791,1.946,3.514,3.821,5.236,5.69
	c0.346,0.373,0.689,0.752,1.066,1.096c0.572,0.518,0.586,0.891-0.045,1.453c-2.773,2.488-5.494,5.033-8.352,7.666
	c-0.746-0.721-1.568-1.454-2.322-2.252c-1.242-1.323-2.457-2.674-3.637-4.051c-0.154-0.179-0.186-0.697-0.045-0.856
	c1.543-1.75,3.125-3.472,4.711-5.183C268.18,57.202,269.295,56.058,270.483,54.811z"/>
<path fill-rule="evenodd" clip-rule="evenodd" fill="#DBDA48" d="M169.801,5.294c1.141,0.147,2.131,0.25,3.111,0.41
	c1.047,0.17,2.078,0.421,3.125,0.584c1.049,0.162,2.115,0.229,3.158,0.411c0.244,0.042,0.607,0.364,0.623,0.581
	c0.049,0.589-0.025,1.194-0.111,1.785c-0.312,2.096-0.641,4.189-0.979,6.281c-0.203,1.258-0.439,2.51-0.666,3.77
	c-3.061-0.457-6.029-0.9-9.273-1.387C169.12,13.682,169.456,9.55,169.801,5.294z"/>
<path fill-rule="evenodd" clip-rule="evenodd" fill="#DBDA48" d="M280.983,87.602c-1.613-2.263-3.221-4.525-4.84-6.781
	c-0.344-0.481-0.568-0.874,0.059-1.359c2.217-1.707,4.398-3.454,6.59-5.195c0.666-0.527,1.346-1.048,1.975-1.619
	c0.418-0.38,0.713-0.319,1.006,0.099c1.697,2.423,3.404,4.837,5.062,7.283c0.137,0.203,0.066,0.802-0.111,0.927
	c-3.17,2.239-6.369,4.438-9.564,6.64C281.116,87.625,281.036,87.601,280.983,87.602z"/>
<path fill-rule="evenodd" clip-rule="evenodd" fill="#DBDA48" d="M80.677,18.848c2.931-1.233,5.751-2.427,8.581-3.604
	c0.435-0.183,0.74-0.219,0.992,0.408c1.364,3.41,2.821,6.781,4.195,10.185c0.095,0.237-0.155,0.843-0.386,0.942
	c-2.314,0.987-4.694,1.822-6.973,2.879c-1.073,0.498-1.247,0.146-1.669-0.756c-1.437-3.07-3.028-6.066-4.542-9.102
	C80.742,19.532,80.746,19.195,80.677,18.848z"/>
<path fill-rule="evenodd" clip-rule="evenodd" fill="#DBDA48" d="M252.438,38.937c-2.127,3.008-4.225,5.947-6.293,8.902
	c-0.791,1.131-0.793,1.174-2,0.338c-2.041-1.404-4.066-2.832-6.057-4.305c-0.184-0.137-0.234-0.758-0.088-0.998
	c1.875-3.103,3.801-6.17,5.697-9.256c0.336-0.549,0.605-0.603,1.152-0.2c2.32,1.705,4.686,3.354,7.029,5.03
	C252.073,38.588,252.241,38.765,252.438,38.937z"/>
<path fill-rule="evenodd" clip-rule="evenodd" fill="#DBDA48" d="M4.702,86.16c1.744-2.761,3.359-5.329,4.989-7.891
	c0.337-0.527,0.667-0.659,1.316-0.228c2.894,1.922,5.839,3.767,8.784,5.607c0.671,0.418,0.771,0.777,0.312,1.467
	c-1.425,2.141-2.778,4.331-4.161,6.502c-0.116,0.184-0.254,0.352-0.392,0.541C11.886,90.132,8.327,88.161,4.702,86.16z"/>
<path fill-rule="evenodd" clip-rule="evenodd" fill="#3A3A3A" d="M146.624,17.993c0.163,3.854,0.339,7.717,0.472,11.583
	c0.009,0.252-0.294,0.731-0.466,0.738c-2.61,0.095-5.227,0.128-7.962,0.177c-0.283-2.558-0.565-5.143-0.855-7.728
	c-0.142-1.245-0.291-2.489-0.449-3.733c-0.069-0.544,0.128-0.867,0.696-0.879C140.835,18.095,143.61,18.048,146.624,17.993z"/>
<path fill-rule="evenodd" clip-rule="evenodd" fill="#898989" d="M126.734,19.509c1.483-0.201,2.783-0.394,4.088-0.549
	c1.496-0.18,2.996-0.312,4.494-0.493c0.666-0.081,0.866,0.19,0.93,0.835c0.302,3.125,0.647,6.245,0.995,9.365
	c0.04,0.369,0.192,0.723,0.283,1.086c0.18,0.707-0.165,1.049-0.824,1.165c-0.031,0.007-0.062,0.007-0.095,0.011
	c-2.334,0.245-4.665,0.514-7.004,0.701c-0.215,0.017-0.625-0.475-0.682-0.778c-0.495-2.573-0.912-5.16-1.388-7.737
	C127.31,21.927,127.011,20.751,126.734,19.509z"/>
<path fill-rule="evenodd" clip-rule="evenodd" fill="#3A3A3A" d="M167.545,18.78c-0.344,4.131-0.686,8.238-1.035,12.442
	c-2.814-0.243-5.535-0.478-8.477-0.73c0.049-4.075,0.1-8.204,0.15-12.497C161.336,18.26,164.319,18.511,167.545,18.78z"/>
<path fill-rule="evenodd" clip-rule="evenodd" fill="#3A3A3A" d="M177.149,32.905c0.354-2.053,0.684-3.923,0.998-5.795
	c0.139-0.832,0.26-1.666,0.365-2.501c0.137-1.09,0.256-2.181,0.377-3.269c0.109-0.953,0.828-0.657,1.309-0.559
	c2.039,0.412,4.059,0.893,6.082,1.357c0.541,0.125,1.074,0.287,1.883,0.508c-0.861,3.941-1.734,7.946-2.643,12.113
	C182.725,34.14,179.979,33.532,177.149,32.905z"/>
<path fill-rule="evenodd" clip-rule="evenodd" fill="#3A3A3A" d="M285.422,97.386c-1.059,0.676-2.061,1.355-3.096,1.975
	c-2.301,1.375-4.654,2.664-6.908,4.113c-0.633,0.406-0.807,0.139-1.045-0.246c-1.217-1.97-2.43-3.943-3.598-5.941
	c-0.232-0.397-0.244-0.812,0.297-1.185c3.029-2.085,6.033-4.209,9.02-6.351c0.543-0.386,0.75-0.013,0.941,0.298
	c1.113,1.817,2.193,3.653,3.285,5.485C284.661,96.107,285.002,96.685,285.422,97.386z"/>
<path fill-rule="evenodd" clip-rule="evenodd" fill="#3A3A3A" d="M85.499,31.747c1.796,3.633,3.593,7.268,5.442,11.012
	c-1.379,0.711-2.651,1.376-3.937,2.029c-0.916,0.467-1.882,0.854-2.754,1.387c-0.648,0.399-1.057,0.226-1.373-0.322
	c-1.814-3.128-3.6-6.273-5.413-9.4c-0.369-0.635-0.116-0.779,0.475-1.059c2.29-1.081,4.524-2.268,6.784-3.407
	C84.913,31.89,85.134,31.856,85.499,31.747z"/>
<path fill-rule="evenodd" clip-rule="evenodd" fill="#898989" d="M65.884,57.276c-0.739,0.587-1.483,1.183-2.234,1.766
	c-1.362,1.057-2.719,2.117-4.105,3.141c-0.151,0.11-0.595,0.072-0.717-0.063c-2.618-2.913-5.213-5.849-7.896-8.878
	c1.358-1.084,2.692-2.165,4.044-3.227c0.885-0.695,1.854-1.297,2.67-2.062c0.521-0.489,0.794-0.275,1.092,0.105
	c2.123,2.723,4.23,5.455,6.343,8.184C65.316,56.548,65.554,56.853,65.884,57.276z"/>
<path fill-rule="evenodd" clip-rule="evenodd" fill="#3A3A3A" d="M268.141,72.545c1.832,2.294,3.543,4.499,5.332,6.643
	c0.508,0.606,0.254,0.912-0.184,1.263c-2.498,1.996-5,3.982-7.502,5.971c-0.498,0.396-1.006,0.779-1.523,1.178
	c-1.766-2.207-3.498-4.37-5.285-6.602C261.987,78.222,265.002,75.441,268.141,72.545z"/>
<path fill-rule="evenodd" clip-rule="evenodd" fill="#3A3A3A" d="M217.739,33.452c-1.738,3.891-3.404,7.622-5.07,11.351
	c-2.594-1.155-5.098-2.271-7.742-3.45c1.414-3.872,2.824-7.723,4.283-11.71C212.004,30.891,214.793,32.136,217.739,33.452z"/>
<path fill-rule="evenodd" clip-rule="evenodd" fill="#898989" d="M229.42,54.451c-2.336-1.426-4.584-2.782-6.803-4.187
	c-0.164-0.102-0.232-0.633-0.123-0.848c1.674-3.238,3.373-6.457,5.096-9.668c0.223-0.414,0.488-0.773,1.15-0.338
	c2.242,1.467,4.553,2.829,6.818,4.262c0.131,0.085,0.193,0.528,0.1,0.686C233.608,47.709,231.538,51.041,229.42,54.451z"/>
<path fill-rule="evenodd" clip-rule="evenodd" fill="#898989" d="M11.532,101.949c1.408-2.555,2.763-4.997,4.093-7.451
	c0.277-0.513,0.563-0.69,1.114-0.378c3.181,1.787,6.363,3.575,9.569,5.32c0.505,0.275,0.527,0.477,0.277,0.93
	c-1.187,2.137-2.34,4.291-3.535,6.422c-0.092,0.162-0.479,0.326-0.623,0.26c-2.115-0.981-4.203-2.013-6.31-3.01
	C14.612,103.333,13.091,102.66,11.532,101.949z"/>
<path fill-rule="evenodd" clip-rule="evenodd" fill="#3A3A3A" d="M101.03,38.782c-1.589-3.863-3.136-7.62-4.738-11.519
	c3.006-1.015,5.872-1.982,8.835-2.982c1.309,3.893,2.596,7.729,3.956,11.784C106.417,36.965,103.785,37.854,101.03,38.782z"/>
<path fill-rule="evenodd" clip-rule="evenodd" fill="#898989" d="M194.77,37.491c-1.254-0.375-2.324-0.709-3.4-1.012
	c-1.381-0.389-2.781-0.717-4.148-1.156c-0.234-0.076-0.52-0.608-0.467-0.865c0.369-1.785,0.834-3.55,1.242-5.326
	c0.291-1.273,0.541-2.555,0.811-3.832c0.143-0.666,0.285-1.333,0.477-2.215c0.891,0.181,1.822,0.311,2.717,0.566
	c1.83,0.521,3.633,1.143,5.467,1.656c0.609,0.17,0.775,0.298,0.561,0.985c-0.889,2.819-1.689,5.666-2.516,8.504
	C195.25,35.705,195.01,36.618,194.77,37.491z"/>
<path fill-rule="evenodd" clip-rule="evenodd" fill="#3A3A3A" d="M244.438,50.103c-2.291,3.197-4.516,6.305-6.748,9.41
	c-0.221,0.307-0.395,0.622-0.891,0.266c-2.031-1.475-4.102-2.9-6.137-4.371c-0.105-0.078-0.098-0.488,0.004-0.654
	c1.908-3.158,3.838-6.298,5.758-9.447c0.33-0.541,0.602-0.682,1.205-0.225c2.035,1.537,4.131,2.99,6.203,4.479
	C244.03,49.704,244.194,49.883,244.438,50.103z"/>
<path fill-rule="evenodd" clip-rule="evenodd" fill="#898989" d="M37.969,83.88c-1.741,2.346-3.392,4.569-5.08,6.843
	c-1.92-1.244-3.76-2.438-5.601-3.631c-1.382-0.896-2.737-1.83-4.154-2.663c-0.567-0.333-0.64-0.631-0.292-1.101
	c1.541-2.068,3.089-4.13,4.645-6.188c0.329-0.436,0.614-0.609,1.19-0.157c2.415,1.888,4.888,3.701,7.346,5.533
	C36.628,82.966,37.257,83.384,37.969,83.88z"/>
<path fill-rule="evenodd" clip-rule="evenodd" fill="#3A3A3A" d="M260.01,64.112c-2.615,2.793-5.389,5.758-8.25,8.812
	c-1.35-1.252-2.701-2.5-4.039-3.764c-0.557-0.525-1.061-1.109-1.635-1.619c-0.404-0.359-0.383-0.565-0.029-0.988
	c2.318-2.779,4.592-5.602,6.893-8.4c0.34-0.414,0.645-0.625,1.172-0.061C256.036,60.128,258.024,62.095,260.01,64.112z"/>
<path fill-rule="evenodd" clip-rule="evenodd" fill="#3A3A3A" d="M43.021,60.186c1.818-1.635,3.569-3.21,5.32-4.784
	c0.069-0.062,0.169-0.089,0.24-0.148c1.47-1.192,1.495-1.215,2.739,0.178c2.144,2.408,4.233,4.859,6.382,7.26
	c0.38,0.425,0.448,0.611-0.021,1.018c-1.777,1.545-3.524,3.123-5.254,4.726c-0.556,0.517-0.858,0.053-1.151-0.229
	c-1.959-1.886-3.891-3.806-5.835-5.706C44.687,61.763,43.917,61.042,43.021,60.186z"/>
<path fill-rule="evenodd" clip-rule="evenodd" fill="#898989" d="M50.89,69.571c-1.843,1.945-3.628,3.846-5.447,5.713
	c-0.152,0.155-0.664,0.206-0.814,0.078c-2.959-2.516-5.892-5.064-8.827-7.611c-0.042-0.034-0.059-0.1-0.015-0.021
	c1.976-2.122,3.927-4.202,5.855-6.307c0.544-0.593,0.848-0.058,1.133,0.22c2.217,2.141,4.407,4.314,6.61,6.471
	C49.877,68.599,50.377,69.075,50.89,69.571z"/>
<path fill-rule="evenodd" clip-rule="evenodd" fill="#6D7A9E" d="M143.385,31.6c1.012-0.019,2.024,0.003,3.032-0.068
	c0.765-0.054,0.999,0.27,1.016,0.981c0.064,2.464,0.151,4.929,0.262,7.389c0.034,0.779,0.14,1.561,0.271,2.329
	c0.229,1.327-0.11,1.765-1.482,1.811c-1.767,0.06-3.536,0.089-5.301,0.19c-0.713,0.041-0.963-0.258-1.021-0.904
	c-0.172-1.877-0.336-3.756-0.561-5.627c-0.196-1.647-0.438-3.289-0.719-4.922c-0.139-0.803,0.368-0.948,0.904-0.979
	c1.198-0.07,2.399-0.06,3.601-0.081C143.386,31.68,143.386,31.64,143.385,31.6z"/>
<path fill-rule="evenodd" clip-rule="evenodd" fill="#A7B0C4" d="M152.532,31.561c1.105-0.02,2.211-0.046,3.316-0.058
	c0.709-0.009,1.105,0.258,1.09,1.065c-0.068,3.526-0.078,7.056-0.17,10.581c-0.008,0.281-0.486,0.775-0.764,0.787
	c-2.084,0.093-4.172,0.096-6.258,0.115c-0.881,0.011-0.767-0.701-0.79-1.219c-0.115-2.463-0.17-4.928-0.281-7.389
	c-0.039-0.841-0.155-1.681-0.282-2.513c-0.172-1.134,0.029-1.392,1.195-1.413c0.982-0.02,1.961-0.036,2.941-0.054
	C152.532,31.497,152.532,31.529,152.532,31.561z"/>
<path fill-rule="evenodd" clip-rule="evenodd" fill="#6D7A9E" d="M157.948,31.689c3.004,0.266,5.691,0.503,8.463,0.749
	c-0.127,1.607-0.248,3.187-0.381,4.767c-0.018,0.218-0.117,0.428-0.129,0.644c-0.123,2.013-0.236,4.025-0.346,6.037
	c-0.053,0.973-0.336,1.182-1.25,0.942c-0.416-0.109-0.844-0.196-1.27-0.229c-1.652-0.13-3.307-0.231-4.861-0.339
	C158.098,40.089,158.024,35.954,157.948,31.689z"/>
<path fill-rule="evenodd" clip-rule="evenodd" fill="#A7B0C4" d="M129.285,32.949c2.804-0.331,5.506-0.651,8.433-0.997
	c0.492,4.133,0.975,8.137,1.469,12.263c-1.032,0.165-1.973,0.337-2.921,0.466c-1.234,0.168-2.479,0.286-3.717,0.455
	c-0.729,0.1-1.016-0.257-1.126-0.915c-0.445-2.616-0.893-5.234-1.371-7.845C129.856,35.308,129.581,34.254,129.285,32.949z"/>
<path fill-rule="evenodd" clip-rule="evenodd" fill="#A7B0C4" d="M248.221,89.36c-1.35-1.451-2.65-2.867-3.973-4.258
	c-1.238-1.307-1.248-1.297-0.01-2.603c2.236-2.356,4.484-4.706,6.701-7.081c0.5-0.537,0.859-0.613,1.377-0.025
	c1.443,1.642,2.893,3.279,4.404,4.857c0.602,0.627,0.311,0.963-0.158,1.393c-2.373,2.182-4.734,4.37-7.102,6.56
	C249.086,88.55,248.713,88.899,248.221,89.36z"/>
<path fill-rule="evenodd" clip-rule="evenodd" fill="#6D7A9E" d="M67.34,73.495c-1.776,1.562-3.525,3.053-5.213,4.611
	c-0.547,0.508-0.787,0.035-1.041-0.197c-2.803-2.551-5.584-5.126-8.499-7.811c1.004-0.969,1.737-1.715,2.512-2.412
	c1.149-1.033,2.343-2.021,3.49-3.058c0.337-0.303,0.558-0.425,0.914-0.026c2.274,2.555,4.566,5.094,6.847,7.645
	C66.68,72.616,66.967,73.024,67.34,73.495z"/>
<path fill-rule="evenodd" clip-rule="evenodd" fill="#6D7A9E" d="M175.188,46.481c0.107-0.947,0.189-1.938,0.344-2.914
	c0.156-0.984,0.43-1.949,0.574-2.931c0.277-1.886,0.514-3.773,0.738-5.665c0.062-0.543,0.215-0.762,0.822-0.629
	c2.453,0.537,4.916,1.029,7.533,1.568c-0.131,0.774-0.236,1.552-0.4,2.316c-0.441,2.057-0.91,4.107-1.365,6.16
	c-0.24,1.086-0.42,2.195-0.768,3.245c-0.07,0.215-0.789,0.372-1.162,0.305c-1.445-0.266-2.873-0.628-4.305-0.962
	C176.543,46.824,175.891,46.657,175.188,46.481z"/>
<path fill-rule="evenodd" clip-rule="evenodd" fill="#A7B0C4" d="M167.727,32.59c1.381,0.246,2.633,0.491,3.895,0.688
	c1.113,0.175,2.232,0.342,3.355,0.426c0.57,0.043,0.828,0.224,0.744,0.793c-0.199,1.393-0.416,2.781-0.611,4.172
	c-0.16,1.146-0.275,2.301-0.445,3.445c-0.207,1.377-0.453,2.748-0.674,4.086c-1.266-0.218-2.389-0.438-3.523-0.598
	c-1.08-0.151-2.176-0.197-3.248-0.389c-0.225-0.037-0.547-0.509-0.533-0.764c0.203-3.55,0.449-7.096,0.705-10.645
	C167.417,33.442,167.584,33.091,167.727,32.59z"/>
<path fill-rule="evenodd" clip-rule="evenodd" fill="#A7B0C4" d="M35.288,112.998c-2.712-1.245-5.323-2.45-7.937-3.647
	c-0.856-0.395-1.726-0.771-2.567-1.194c-0.461-0.233-0.797-0.542-0.446-1.16c1.087-1.912,2.146-3.841,3.2-5.771
	c0.342-0.618,0.624-0.778,1.354-0.356c2.975,1.698,6.006,3.3,9.021,4.93c0.738,0.398,0.98,0.756,0.434,1.632
	C37.222,109.227,36.29,111.146,35.288,112.998z"/>
<path fill-rule="evenodd" clip-rule="evenodd" fill="#6D7A9E" d="M83.974,47.651c2.482-1.229,4.912-2.431,7.526-3.729
	c1.841,3.708,3.685,7.419,5.544,11.166c-2.272,1.11-4.481,2.188-6.806,3.325C88.185,54.885,86.108,51.318,83.974,47.651z"/>
<path fill-rule="evenodd" clip-rule="evenodd" fill="#A7B0C4" d="M44.44,98.134c-3.365-2.165-6.584-4.244-9.814-6.3
	c-0.466-0.296-0.599-0.503-0.215-1.005c1.414-1.857,2.792-3.74,4.153-5.637c0.322-0.452,0.497-0.432,0.935-0.104
	c3.094,2.311,6.219,4.581,9.438,6.939C47.439,94.063,45.964,96.067,44.44,98.134z"/>
<path fill-rule="evenodd" clip-rule="evenodd" fill="#A7B0C4" d="M267.032,118.726c-1.02-2.021-1.955-4.031-3.043-5.957
	c-0.42-0.743-0.141-0.943,0.404-1.268c3.123-1.848,6.232-3.716,9.342-5.582c0.102-0.061,0.176-0.166,0.457-0.443
	c1.307,2.533,2.576,4.984,3.902,7.541C274.374,114.938,270.721,116.823,267.032,118.726z"/>
<path fill-rule="evenodd" clip-rule="evenodd" fill="#A7B0C4" d="M74.157,68.024c-0.103,0.16-0.168,0.357-0.304,0.462
	c-1.602,1.234-3.253,2.407-4.807,3.698c-0.619,0.514-0.958,0.314-1.361-0.138c-1.814-2.028-3.624-4.064-5.434-6.101
	c-0.588-0.664-1.194-1.315-1.721-2.025c-0.126-0.174-0.078-0.696,0.081-0.824c1.858-1.516,3.745-2.996,5.656-4.441
	c0.144-0.109,0.646,0.006,0.781,0.176c2.295,2.878,4.561,5.781,6.825,8.683C73.985,67.655,74.052,67.83,74.157,68.024z"/>
<path fill-rule="evenodd" clip-rule="evenodd" fill="#A7B0C4" d="M207.09,57.249c-1.049-0.438-2.051-0.845-3.041-1.275
	c-1.078-0.469-2.17-0.916-3.199-1.477c-0.26-0.145-0.514-0.757-0.418-1.032c1.156-3.294,2.373-6.568,3.584-9.845
	c0.115-0.313,0.297-0.6,0.527-1.055c0.9,0.396,1.812,0.799,2.729,1.201c1.396,0.613,2.805,1.193,4.174,1.867
	c0.256,0.125,0.559,0.701,0.471,0.912c-0.953,2.241-1.973,4.451-2.98,6.67C208.354,54.494,207.768,55.771,207.09,57.249z"/>
<path fill-rule="evenodd" clip-rule="evenodd" fill="#6D7A9E" d="M31.443,120.859c-3.874-1.497-7.75-2.993-11.624-4.487
	c1.21-2.584,2.326-4.965,3.526-7.525c1.114,0.472,2.248,0.91,3.352,1.421c2.501,1.154,4.991,2.335,7.47,3.54
	c0.165,0.082,0.323,0.533,0.244,0.703C33.476,116.575,32.499,118.621,31.443,120.859z"/>
<path fill-rule="evenodd" clip-rule="evenodd" fill="#A7B0C4" d="M215.786,62.081c1.961-3.698,3.891-7.329,5.822-10.975
	c2.176,1.329,4.211,2.597,6.273,3.828c0.723,0.434,0.775,0.795,0.297,1.533c-1.898,2.936-3.717,5.926-5.543,8.908
	c-0.297,0.484-0.523,0.725-1.098,0.351C219.665,64.507,217.76,63.331,215.786,62.081z"/>
<path fill-rule="evenodd" clip-rule="evenodd" fill="#6D7A9E" d="M269.405,97.297c1.25,2.084,2.4,4.149,3.709,6.116
	c0.619,0.935,0.328,1.329-0.48,1.799c-2.975,1.732-5.961,3.445-8.865,5.29c-0.682,0.434-0.91,0.116-1.143-0.253
	c-1.055-1.689-2.08-3.397-3.055-5.135c-0.143-0.254-0.082-0.889,0.111-1.026C262.856,101.827,266.065,99.615,269.405,97.297z"/>
<path fill-rule="evenodd" clip-rule="evenodd" fill="#A7B0C4" d="M235.965,76.855c-1.777-1.489-3.373-2.892-5.047-4.2
	c-0.688-0.535-0.639-0.903-0.166-1.545c2.01-2.747,3.973-5.525,5.941-8.302c0.588-0.835,0.779-0.874,1.588-0.204
	c1.85,1.529,3.697,3.054,5.617,4.639C241.268,70.429,238.655,73.597,235.965,76.855z"/>
<path fill-rule="evenodd" clip-rule="evenodd" fill="#6D7A9E" d="M81.539,63.29c-2.092,1.402-4.137,2.777-6.23,4.18
	c-1.478-1.893-2.938-3.756-4.39-5.621c-0.947-1.226-1.861-2.475-2.83-3.683c-0.275-0.345-0.465-0.53,0.029-0.852
	c2.015-1.312,4.001-2.666,6.019-3.974c0.179-0.115,0.657-0.104,0.743,0.021c2.148,3.139,4.259,6.297,6.377,9.453
	C81.358,62.967,81.442,63.128,81.539,63.29z"/>
<path fill-rule="evenodd" clip-rule="evenodd" fill="#A7B0C4" d="M186.377,36.338c1.381,0.403,2.611,0.767,3.844,1.12
	c1.035,0.297,2.064,0.628,3.115,0.865c0.955,0.215,1.045,0.368,0.766,1.321c-0.541,1.833-1.016,3.685-1.533,5.524
	c-0.467,1.661-0.936,3.32-1.467,4.959c-0.064,0.195-0.572,0.423-0.793,0.358c-1.809-0.528-3.564-1.313-5.402-1.632
	c-1.262-0.217-1.133-0.856-0.984-1.61c0.26-1.3,0.646-2.573,0.941-3.868c0.287-1.267,0.518-2.547,0.789-3.82
	C185.87,38.536,186.11,37.521,186.377,36.338z"/>
<path fill-rule="evenodd" clip-rule="evenodd" fill="#6D7A9E" d="M113.423,49.086c-2.608,0.854-4.89,1.601-7.147,2.339
	c-1.425-3.377-2.774-6.579-4.125-9.785c-0.142-0.335-0.286-0.672-0.415-1.014c-0.198-0.531,0.056-0.848,0.535-1.001
	c2.261-0.726,4.527-1.436,6.787-2.157c0.112-0.035,0.213-0.113,0.422-0.229C110.803,41.215,112.112,45.151,113.423,49.086z"/>
<path fill-rule="evenodd" clip-rule="evenodd" fill="#A7B0C4" d="M121.982,46.8c-0.983,0.293-1.909,0.593-2.843,0.844
	c-1.329,0.355-2.665,0.695-4.012,0.992c-0.213,0.049-0.643-0.1-0.7-0.256c-0.462-1.271-0.854-2.564-1.278-3.85
	c-0.597-1.81-1.206-3.613-1.804-5.422c-0.233-0.709-0.449-1.424-0.683-2.164c2.584-0.649,4.985-1.246,7.385-1.859
	c0.59-0.15,0.863,0.086,1.006,0.646c0.521,2.036,1.077,4.061,1.594,6.1c0.329,1.288,0.603,2.592,0.922,3.887
	C121.648,46.04,121.806,46.343,121.982,46.8z"/>
<path fill-rule="evenodd" clip-rule="evenodd" fill="#A7B0C4" d="M100.256,40.384c0.075,0.102,0.23,0.252,0.312,0.436
	c0.79,1.852,1.568,3.707,2.348,5.564c0.641,1.524,1.29,3.046,1.901,4.581c0.209,0.526,0.254,0.913-0.534,1.183
	c-1.8,0.621-3.548,1.408-5.291,2.18c-0.564,0.249-0.945,0.252-1.232-0.334c-0.99-2.024-1.99-4.042-2.975-6.07
	c-0.625-1.288-1.17-2.616-1.864-3.863c-0.295-0.527-0.025-0.711,0.279-0.84c2.224-0.947,4.462-1.859,6.697-2.781
	C99.954,40.413,100.022,40.417,100.256,40.384z"/>
<path fill-rule="evenodd" clip-rule="evenodd" fill="#6D7A9E" d="M229.805,56.331c1.947,1.375,3.854,2.725,5.758,4.075
	c0.947,0.674,0.873,0.855,0.299,1.644c-2.037,2.801-4.023,5.639-6.016,8.473c-0.373,0.531-0.656,0.743-1.291,0.248
	c-1.5-1.17-3.074-2.248-4.619-3.354c-0.555-0.396-0.703-0.75-0.273-1.429c1.922-3.032,3.764-6.116,5.646-9.176
	C229.43,56.616,229.651,56.479,229.805,56.331z"/>
<path fill-rule="evenodd" clip-rule="evenodd" fill="#6D7A9E" d="M258.059,81.86c1.535,1.904,3.002,3.721,4.463,5.541
	c0.152,0.188,0.361,0.359,0.428,0.576c0.07,0.225,0.104,0.609-0.021,0.718c-1.555,1.313-3.133,2.598-4.721,3.872
	c-1.469,1.177-2.957,2.33-4.564,3.598c-1.559-1.921-3.129-3.855-4.75-5.855C251.924,87.517,254.948,84.728,258.059,81.86z"/>
<path fill-rule="evenodd" clip-rule="evenodd" fill="#6D7A9E" d="M236.885,77.599c2.617-3.166,5.217-6.309,7.863-9.505
	c1.938,1.829,3.797,3.572,5.641,5.333c0.346,0.332,0.271,0.687-0.059,1.035c-2.479,2.598-4.953,5.198-7.41,7.814
	c-0.455,0.486-0.807,0.485-1.27,0.021C240.094,80.739,238.514,79.202,236.885,77.599z"/>
<path fill-rule="evenodd" clip-rule="evenodd" fill="#6D7A9E" d="M54.624,85.437c-1.536,1.834-3.023,3.625-4.546,5.385
	c-0.107,0.127-0.551,0.126-0.717,0.011c-1.646-1.151-3.278-2.321-4.893-3.517c-1.535-1.139-3.048-2.31-4.717-3.58
	c0.859-0.979,1.734-1.944,2.575-2.938c0.806-0.947,1.56-1.938,2.372-2.879c0.23-0.268,0.47-0.639,0.976-0.196
	C48.635,80.312,51.627,82.863,54.624,85.437z"/>
<path fill-rule="evenodd" clip-rule="evenodd" fill="#6D7A9E" d="M199.096,53.667c-2.33-0.852-4.547-1.661-6.961-2.541
	c0.91-4.041,2.246-7.955,3.398-11.992c2.406,0.861,4.695,1.682,6.986,2.504c0.574,0.207,0.867,0.584,0.637,1.209
	c-0.873,2.377-1.75,4.756-2.637,7.129C200.073,51.175,199.598,52.363,199.096,53.667z"/>
<path fill-rule="evenodd" clip-rule="evenodd" fill="#A7B0C4" d="M55.677,84.761c-3.327-2.838-6.458-5.507-9.604-8.189
	c1.945-2.039,3.831-4.017,5.803-6.086c1.886,1.841,3.729,3.645,5.577,5.445c0.841,0.818,1.652,1.676,2.545,2.438
	c0.656,0.566,0.746,0.922,0.069,1.604C58.566,81.478,57.182,83.101,55.677,84.761z"/>
<path fill-rule="evenodd" clip-rule="evenodd" fill="#A4A4A4" d="M142.008,57.799c-0.509-4.14-1.01-8.204-1.523-12.375
	c2.618-0.048,5.061-0.092,7.678-0.14c0.035,1.957,0.029,3.88,0.117,5.796c0.086,1.88,0.257,3.759,0.413,5.636
	c0.049,0.586-0.203,0.945-0.752,0.964C145.987,57.745,144.035,57.762,142.008,57.799z"/>
<path fill-rule="evenodd" clip-rule="evenodd" fill="#C8C8C8" d="M149.829,57.767c-0.225-4.227-0.445-8.334-0.667-12.445
	c2.399-0.045,4.634-0.107,6.87-0.092c0.236,0.002,0.67,0.471,0.672,0.727c0.018,1.447-0.098,2.894-0.113,4.342
	c-0.02,2.117-0.01,4.235,0.021,6.354c0.01,0.707-0.205,1.028-0.975,1.024C153.745,57.666,151.858,57.729,149.829,57.767z"/>
<path fill-rule="evenodd" clip-rule="evenodd" fill="#A4A4A4" d="M165.313,46.108c-0.078,0.877-0.148,1.714-0.229,2.549
	c-0.018,0.188-0.104,0.369-0.113,0.555c-0.123,1.947-0.223,3.896-0.357,5.844c-0.07,1-0.17,2.002-0.32,2.993
	c-0.027,0.167-0.373,0.409-0.57,0.407c-0.646-0.006-1.291-0.111-1.939-0.17c-1.209-0.111-2.432-0.153-3.625-0.369
	c-0.256-0.047-0.564-0.707-0.572-1.09c-0.02-1.161,0.139-2.321,0.152-3.484c0.025-2.307,0.018-4.615-0.014-6.926
	c-0.012-0.805,0.32-1.062,1.088-0.979C160.93,45.672,163.049,45.877,165.313,46.108z"/>
<path fill-rule="evenodd" clip-rule="evenodd" fill="#C8C8C8" d="M134.312,58.71c-0.266-1.228-0.55-2.465-0.802-3.709
	c-0.418-2.047-0.823-4.096-1.216-6.148c-0.128-0.677-0.249-1.362-0.277-2.049c-0.008-0.162,0.354-0.464,0.572-0.492
	c1.782-0.214,3.571-0.368,5.355-0.56c0.399-0.043,0.794-0.151,1.394-0.271c0.509,4.109,1.016,8.195,1.53,12.359
	C138.637,58.136,136.546,58.414,134.312,58.71z"/>
<path fill-rule="evenodd" clip-rule="evenodd" fill="#A4A4A4" d="M182.19,49.339c-0.203,1.129-0.381,2.259-0.613,3.379
	c-0.293,1.426-0.631,2.841-0.943,4.263c-0.273,1.241-0.508,2.493-0.818,3.722c-0.098,0.399-0.291,0.848-0.908,0.686
	c-1.242-0.328-2.508-0.578-3.73-0.963c-0.707-0.224-1.914,0.349-2.01-0.949c-0.059-0.823,0.188-1.672,0.336-2.503
	c0.178-1.009,0.439-2.007,0.588-3.021c0.273-1.824,0.514-3.652,0.715-5.486c0.096-0.87,0.635-0.727,1.164-0.604
	C177.961,48.325,179.946,48.808,182.19,49.339z"/>
<path fill-rule="evenodd" clip-rule="evenodd" fill="#C8C8C8" d="M50.861,112.962c-0.977,1.817-1.904,3.613-2.925,5.354
	c-0.115,0.193-0.83,0.227-1.149,0.08c-3.301-1.518-6.582-3.081-9.852-4.664c-0.167-0.08-0.326-0.551-0.242-0.713
	c0.92-1.784,1.887-3.547,2.854-5.309c0.273-0.498,0.624-0.669,1.208-0.342C44.075,109.23,47.415,111.058,50.861,112.962z"/>
<path fill-rule="evenodd" clip-rule="evenodd" fill="#A4A4A4" d="M35.872,114.588c2.124,0.987,4.152,1.933,6.184,2.874
	c1.46,0.674,2.924,1.338,4.379,2.017c0.412,0.194,0.588,0.454,0.346,0.95c-0.73,1.504-1.405,3.031-2.122,4.541
	c-0.248,0.527-0.373,0.895-1.253,0.523c-3.24-1.365-6.567-2.517-9.856-3.76c-0.627-0.236-0.939-0.549-0.544-1.324
	c0.865-1.683,1.61-3.424,2.416-5.137C35.537,115.026,35.721,114.813,35.872,114.588z"/>
<path fill-rule="evenodd" clip-rule="evenodd" fill="#C8C8C8" d="M166.418,46.29c2.5,0.377,4.873,0.732,7.43,1.117
	c-0.619,4.124-1.225,8.15-1.846,12.312c-1.424-0.221-2.705-0.434-3.99-0.622c-0.494-0.073-0.996-0.119-1.496-0.14
	c-0.715-0.031-1.129-0.314-1.051-1.098c0.195-1.967,0.408-3.936,0.572-5.904C166.19,50.141,166.284,48.321,166.418,46.29z"/>
<path fill-rule="evenodd" clip-rule="evenodd" fill="#A4A4A4" d="M258.127,105.144c1.23,1.992,2.43,3.896,3.57,5.836
	c0.115,0.192-0.016,0.754-0.201,0.869c-3.207,1.99-6.436,3.945-9.682,5.861c-0.164,0.096-0.709-0.148-0.85-0.373
	c-0.873-1.406-1.619-2.891-2.531-4.264c-0.445-0.668-0.293-0.91,0.285-1.309C251.842,109.6,254.936,107.394,258.127,105.144z"/>
<path fill-rule="evenodd" clip-rule="evenodd" fill="#C8C8C8" d="M82.709,78.906c-1.764,1.368-3.449,2.681-5.233,4.07
	c-2.721-3.038-5.465-6.104-8.277-9.247c0.944-0.785,1.858-1.572,2.804-2.32c0.791-0.624,1.649-1.163,2.412-1.812
	c0.44-0.371,0.759-0.391,1.094,0.043C77.884,72.691,80.257,75.749,82.709,78.906z"/>
<path fill-rule="evenodd" clip-rule="evenodd" fill="#C8C8C8" d="M262.52,112.61c1.154,2.266,2.271,4.461,3.393,6.658
	c-3.75,1.938-7.328,3.787-11.016,5.691c-0.527-0.984-1.07-1.988-1.604-2.999c-0.344-0.646-0.646-1.314-1.016-1.944
	c-0.369-0.631-0.303-1.052,0.367-1.449C255.889,116.634,259.116,114.669,262.52,112.61z"/>
<path fill-rule="evenodd" clip-rule="evenodd" fill="#C8C8C8" d="M89.781,59.995c1.075,1.838,2.146,3.668,3.216,5.504
	c0.858,1.471,1.681,2.964,2.588,4.406c0.386,0.615,0.191,1.011-0.303,1.303c-1.611,0.948-3.25,1.852-4.993,2.839
	c-0.832-1.231-1.675-2.479-2.52-3.726c-1.298-1.916-2.553-3.862-3.915-5.726c-0.581-0.79-0.255-1.092,0.396-1.458
	C86.075,62.114,87.89,61.072,89.781,59.995z"/>
<path fill-rule="evenodd" clip-rule="evenodd" fill="#A4A4A4" d="M130.744,46.511c0.796,4.145,1.556,8.115,2.331,12.166
	c-0.747,0.174-1.543,0.381-2.348,0.541c-1.184,0.238-2.371,0.473-3.566,0.643c-0.239,0.033-0.692-0.184-0.755-0.379
	c-0.34-1.059-0.581-2.149-0.867-3.23c-0.514-1.94-1.041-3.879-1.547-5.823c-0.203-0.775-0.363-1.565-0.578-2.501
	C125.819,47.461,128.165,47.007,130.744,46.511z"/>
<path fill-rule="evenodd" clip-rule="evenodd" fill="#C8C8C8" d="M199.743,55.372c2.176,0.983,4.221,1.934,6.293,2.824
	c0.484,0.209,0.514,0.346,0.303,0.808c-1.543,3.389-3.053,6.791-4.547,10.198c-0.213,0.489-0.291,0.594-0.854,0.305
	c-1.457-0.739-2.982-1.34-4.496-1.969c-0.766-0.32-0.961-0.67-0.59-1.539c0.861-2.021,1.553-4.116,2.307-6.186
	C198.68,58.373,199.188,56.927,199.743,55.372z"/>
<path fill-rule="evenodd" clip-rule="evenodd" fill="#A4A4A4" d="M202.526,70.394c0.904-2.012,1.744-3.873,2.574-5.736
	c0.75-1.674,1.459-3.367,2.248-5.019c0.094-0.193,0.666-0.361,0.877-0.257c1.9,0.942,3.773,1.941,5.633,2.957
	c0.133,0.07,0.246,0.443,0.176,0.578c-1.779,3.402-3.582,6.794-5.404,10.172c-0.086,0.157-0.465,0.332-0.59,0.267
	C206.204,72.397,204.383,71.399,202.526,70.394z"/>
<path fill-rule="evenodd" clip-rule="evenodd" fill="#C8C8C8" d="M59.836,100.29c-1.136,1.555-2.28,3.149-3.456,4.721
	c-0.268,0.358-0.528,0.477-1.057,0.127c-3-1.983-6.055-3.881-9.093-5.803c-0.478-0.302-0.721-0.564-0.256-1.159
	c1.216-1.562,2.339-3.197,3.527-4.779c0.223-0.294,0.497-0.622,0.998-0.247c3.057,2.318,6.136,4.604,9.207,6.903
	C59.75,100.085,59.766,100.157,59.836,100.29z"/>
<path fill-rule="evenodd" clip-rule="evenodd" fill="#C8C8C8" d="M110.325,64.4c-1.982,0.856-3.833,1.671-5.704,2.446
	c-0.132,0.055-0.479-0.105-0.555-0.256c-1.065-2.062-2.106-4.14-3.143-6.219c-0.607-1.219-1.196-2.445-1.782-3.676
	c-0.13-0.271-0.208-0.568-0.347-0.954c2.268-0.933,4.466-1.835,6.805-2.798C107.194,56.806,108.736,60.546,110.325,64.4z"/>
<path fill-rule="evenodd" clip-rule="evenodd" fill="#C8C8C8" d="M190.577,51.841c-1.145,3.918-2.281,7.809-3.465,11.867
	c-1.279-0.354-2.51-0.686-3.736-1.029c-0.646-0.184-1.275-0.455-1.936-0.551c-0.604-0.086-0.766-0.367-0.65-0.891
	c0.57-2.598,1.148-5.197,1.729-7.796c0.227-1.024,0.445-2.054,0.701-3.07c0.205-0.821,0.855-0.505,1.305-0.374
	C186.475,50.554,188.407,51.173,190.577,51.841z"/>
<path fill-rule="evenodd" clip-rule="evenodd" fill="#C8C8C8" d="M122.268,48.133c0.61,2.444,1.169,4.758,1.769,7.062
	c0.329,1.251,0.731,2.482,1.102,3.725c0.295,0.984-0.045,1.375-1.072,1.586c-1.381,0.285-2.734,0.714-4.102,1.065
	c-0.327,0.083-0.665,0.116-1.058,0.183c-0.875-2.694-1.72-5.33-2.592-7.957c-0.319-0.961-0.723-1.895-1.062-2.848
	c-0.183-0.504-0.213-1.029,0.44-1.199C117.856,49.198,120.026,48.682,122.268,48.133z"/>
<path fill-rule="evenodd" clip-rule="evenodd" fill="#C8C8C8" d="M221.545,67.142c-1.809,2.92-3.518,5.678-5.229,8.436
	c-0.08,0.126-0.174,0.241-0.262,0.359c-0.387,0.521-0.693,1.341-1.186,1.475c-0.465,0.125-1.143-0.441-1.688-0.768
	c-1.164-0.697-2.311-1.419-3.43-2.18c-0.148-0.101-0.223-0.551-0.127-0.734c1.697-3.264,3.428-6.513,5.141-9.771
	c0.299-0.568,0.527-0.703,1.17-0.273C217.749,64.896,219.645,65.979,221.545,67.142z"/>
<path fill-rule="evenodd" clip-rule="evenodd" fill="#A4A4A4" d="M106.724,52.601c2.5-0.826,4.794-1.586,7.114-2.354
	c1.351,4.027,2.629,7.844,3.944,11.766c-2.069,0.7-4.043,1.369-6.273,2.123C109.934,60.338,108.333,56.483,106.724,52.601z"/>
<path fill-rule="evenodd" clip-rule="evenodd" fill="#C8C8C8" d="M65.977,93.545c-3.198-2.724-6.32-5.383-9.279-7.902
	c1.561-1.718,3.087-3.419,4.65-5.085c0.121-0.131,0.611-0.132,0.746-0.002c2.661,2.582,5.29,5.195,7.942,7.789
	c0.392,0.383,0.343,0.621-0.028,0.997C68.659,90.708,67.345,92.112,65.977,93.545z"/>
<path fill-rule="evenodd" clip-rule="evenodd" fill="#A4A4A4" d="M97.684,56.394c1.661,3.387,3.299,6.801,5.019,10.172
	c0.333,0.654,0.131,0.895-0.373,1.148c-1.478,0.74-2.959,1.476-4.434,2.217c-0.471,0.237-0.821,0.28-1.144-0.285
	c-1.848-3.23-3.735-6.436-5.581-9.666c-0.102-0.176-0.055-0.643,0.06-0.699c1.967-0.985,3.953-1.93,5.941-2.869
	C97.302,56.349,97.483,56.396,97.684,56.394z"/>
<path fill-rule="evenodd" clip-rule="evenodd" fill="#A4A4A4" d="M238.854,99.569c3.014-2.777,6.016-5.541,9.104-8.389
	c0.857,1.025,1.676,1.982,2.467,2.956c0.576,0.71,1.072,1.487,1.691,2.153c0.494,0.535,0.359,0.895-0.111,1.271
	c-1.828,1.463-3.66,2.916-5.486,4.377c-0.977,0.777-1.971,1.525-2.891,2.36c-0.545,0.497-0.867,0.349-1.238-0.134
	C241.235,102.659,240.079,101.159,238.854,99.569z"/>
<path fill-rule="evenodd" clip-rule="evenodd" fill="#A4A4A4" d="M65.042,94.325c-1.297,1.541-2.517,2.994-3.749,4.442
	c-0.383,0.448-0.712,0.542-1.279,0.107c-2.774-2.136-5.573-4.245-8.425-6.276c-0.802-0.572-0.723-0.886-0.138-1.527
	c1.248-1.365,2.407-2.812,3.624-4.207c0.26-0.298,0.5-0.688,1.043-0.215C59.062,89.222,62.042,91.754,65.042,94.325z"/>
<path fill-rule="evenodd" clip-rule="evenodd" fill="#A4A4A4" d="M191.663,52.288c1.316,0.461,2.531,0.869,3.73,1.312
	c0.801,0.295,1.561,0.762,2.381,0.92c0.805,0.158,0.855,0.604,0.666,1.137c-0.738,2.076-1.531,4.134-2.311,6.197
	c-0.525,1.4-1.043,2.8-1.623,4.178c-0.078,0.183-0.545,0.375-0.744,0.305c-1.568-0.541-3.111-1.16-4.676-1.725
	c-0.594-0.215-0.877-0.568-0.703-1.186c0.383-1.364,0.783-2.723,1.188-4.076c0.424-1.412,0.867-2.818,1.289-4.229
	C191.122,54.239,191.364,53.349,191.663,52.288z"/>
<path fill-rule="evenodd" clip-rule="evenodd" fill="#A4A4A4" d="M221.286,82.335c-1.848-1.329-3.586-2.575-5.373-3.861
	c2.193-3.541,4.334-6.992,6.543-10.557c1.01,0.711,1.969,1.391,2.922,2.07c0.891,0.633,1.793,1.251,2.656,1.921
	c0.172,0.134,0.334,0.579,0.246,0.7C225.979,75.852,223.645,79.069,221.286,82.335z"/>
<path fill-rule="evenodd" clip-rule="evenodd" fill="#C8C8C8" d="M257.52,104.056c-0.104,0.123-0.178,0.26-0.289,0.336
	c-3.098,2.133-6.209,4.246-9.281,6.41c-0.525,0.37-0.686,0.264-1.002-0.214c-0.867-1.308-1.758-2.604-2.723-3.842
	c-0.543-0.696-0.465-1.143,0.199-1.667c2.6-2.062,5.18-4.148,7.76-6.236c1.047-0.848,1.051-0.871,1.871,0.261
	c1.107,1.526,2.193,3.066,3.285,4.603C257.409,103.8,257.45,103.915,257.52,104.056z"/>
<path fill-rule="evenodd" clip-rule="evenodd" fill="#C8C8C8" d="M229.428,73.03c1.766,1.48,3.477,2.94,5.217,4.353
	c0.422,0.345,0.449,0.509,0.088,0.938c-2.279,2.711-4.547,5.437-6.76,8.201c-0.52,0.648-0.873,0.771-1.523,0.207
	c-1.377-1.195-2.809-2.327-4.291-3.545C224.553,79.843,226.956,76.485,229.428,73.03z"/>
<path fill-rule="evenodd" clip-rule="evenodd" fill="#A4A4A4" d="M51.618,112.041c-3.476-1.919-6.796-3.77-10.138-5.583
	c-0.682-0.37-0.688-0.649-0.248-1.274c1.059-1.515,2.028-3.097,2.998-4.667c0.388-0.628,0.694-0.703,1.361-0.264
	c2.909,1.922,5.876,3.758,8.808,5.642c0.457,0.295,0.854,0.534,0.312,1.274C53.584,108.712,52.646,110.394,51.618,112.041z"/>
<path fill-rule="evenodd" clip-rule="evenodd" fill="#A4A4A4" d="M82.261,64.294c1.15,1.695,2.276,3.347,3.394,5.005
	c1.058,1.565,2.091,3.152,3.174,4.702c0.314,0.448,0.214,0.703-0.183,0.972c-1.518,1.026-3.022,2.072-4.562,3.06
	c-0.136,0.086-0.586-0.106-0.737-0.295c-1.433-1.769-2.837-3.559-4.233-5.355c-0.839-1.077-1.581-2.234-2.484-3.255
	c-0.688-0.776-0.077-0.995,0.384-1.308C78.719,66.659,80.44,65.515,82.261,64.294z"/>
<path fill-rule="evenodd" clip-rule="evenodd" fill="#A4A4A4" d="M71.749,87.845c-2.888-2.691-5.706-5.326-8.538-7.943
	c-0.342-0.315-0.579-0.519-0.102-0.941c1.698-1.51,3.366-3.054,5.059-4.598c2.681,2.971,5.288,5.841,7.855,8.75
	c0.157,0.181,0.104,0.809-0.081,0.982C74.529,85.422,73.056,86.688,71.749,87.845z"/>
<path fill-rule="evenodd" clip-rule="evenodd" fill="#C8C8C8" d="M242.252,84.84c0.195,0.179,0.361,0.308,0.504,0.46
	c1.299,1.413,2.566,2.857,3.906,4.23c0.615,0.627,0.289,0.988-0.176,1.414c-2.105,1.939-4.213,3.873-6.314,5.814
	c-0.482,0.448-0.951,0.91-1.432,1.361c-0.393,0.371-0.723,0.41-1.133-0.053c-1.158-1.312-2.354-2.6-3.568-3.861
	c-0.355-0.369-0.301-0.545,0.033-0.887c2.57-2.667,5.111-5.357,7.664-8.039C241.875,85.134,242.045,85.015,242.252,84.84z"/>
<path fill-rule="evenodd" clip-rule="evenodd" fill="#A4A4A4" d="M241.307,83.778c-0.209,0.284-0.344,0.517-0.525,0.709
	c-1.893,1.986-3.797,3.961-5.688,5.952c-0.613,0.644-1.162,1.349-1.795,1.967c-0.139,0.136-0.619,0.14-0.764,0.01
	c-1.348-1.234-2.676-2.488-3.947-3.798c-0.16-0.169-0.088-0.801,0.102-1.037c2.111-2.632,4.271-5.229,6.412-7.838
	c0.896-1.088,0.895-1.094,1.986-0.055c1.26,1.207,2.518,2.42,3.775,3.633C241.004,83.458,241.139,83.603,241.307,83.778z"/>
<path fill-rule="evenodd" clip-rule="evenodd" fill="#E9E799" d="M150.534,70.249c-0.24-3.816-0.471-7.516-0.711-11.326
	c1.545-0.028,2.982-0.103,4.416-0.07c2.207,0.051,2.188,0.083,2.176,2.285c-0.014,2.495,0.027,4.988,0.016,7.482
	c-0.004,0.512-0.141,1.025-0.215,1.527C154.254,70.184,152.432,70.216,150.534,70.249z"/>
<path fill-rule="evenodd" clip-rule="evenodd" fill="#DBDA48" d="M148.773,58.955c0.01,0.51,0.001,1.008,0.03,1.504
	c0.168,2.891,0.326,5.78,0.533,8.667c0.053,0.803-0.152,1.145-1.022,1.121c-1.512-0.037-3.026,0.038-4.8,0.068
	c-0.437-3.663-0.881-7.395-1.339-11.24C144.46,59.033,146.531,58.996,148.773,58.955z"/>
<path fill-rule="evenodd" clip-rule="evenodd" fill="#DBDA48" d="M157.417,70.484c0.07-3.815,0.137-7.521,0.207-11.36
	c2.152,0.193,4.283,0.386,6.574,0.591c-0.266,2.854-0.531,5.567-0.77,8.284c-0.061,0.689-0.066,1.389-0.045,2.086
	c0.014,0.514-0.152,0.783-0.691,0.748C160.948,70.718,159.204,70.603,157.417,70.484z"/>
<path fill-rule="evenodd" clip-rule="evenodd" fill="#E9E799" d="M134.506,59.947c2.031-0.298,3.857-0.561,5.681-0.839
	c0.633-0.097,0.904,0.123,0.971,0.791c0.301,3.066,0.643,6.124,0.984,9.183c0.041,0.366,0.162,0.722,0.282,1.241
	c-1.986,0.229-3.912,0.455-5.851,0.68C135.865,67.208,135.195,63.629,134.506,59.947z"/>
<path fill-rule="evenodd" clip-rule="evenodd" fill="#DBDA48" d="M129.707,72.088c-0.948-3.642-1.876-7.202-2.84-10.904
	c1.56-0.286,3.093-0.568,4.626-0.851c0.213-0.039,0.436-0.061,0.637-0.137c1.014-0.383,1.268-0.185,1.464,0.922
	c0.358,2.027,0.797,4.037,1.177,6.059c0.202,1.078,0.387,2.16,0.489,3.249c0.024,0.265-0.265,0.762-0.486,0.812
	c-1.537,0.355-3.095,0.619-4.649,0.902C130.007,72.161,129.879,72.11,129.707,72.088z"/>
<path fill-rule="evenodd" clip-rule="evenodd" fill="#E9E799" d="M242.625,106.604c1.186,1.67,2.377,3.322,3.525,5.004
	c0.076,0.112-0.088,0.526-0.25,0.641c-2.684,1.917-5.375,3.813-8.082,5.697c-0.365,0.254-0.734,0.381-1.092-0.16
	c-0.834-1.252-1.775-2.435-2.58-3.705c-0.121-0.193,0.156-0.828,0.422-1.046C237.206,110.89,239.877,108.788,242.625,106.604z"/>
<path fill-rule="evenodd" clip-rule="evenodd" fill="#DBDA48" d="M97.873,71.3c1.897-0.938,3.758-1.855,5.74-2.835
	c0.683,1.364,1.382,2.744,2.065,4.126c0.854,1.728,1.64,3.495,2.569,5.182c0.383,0.695,0.082,0.963-0.399,1.217
	c-1.225,0.645-2.47,1.259-3.714,1.865c-0.422,0.206-0.718,0.248-1.041-0.318c-1.596-2.801-3.273-5.554-4.909-8.332
	C98.045,71.97,98,71.679,97.873,71.3z"/>
<path fill-rule="evenodd" clip-rule="evenodd" fill="#E9E799" d="M250.758,119.735c0.957,1.814,1.9,3.57,2.797,5.346
	c0.08,0.153-0.047,0.574-0.193,0.653c-3.008,1.592-6.023,3.163-9.062,4.693c-0.189,0.096-0.727-0.106-0.848-0.315
	c-0.783-1.367-1.508-2.771-2.211-4.18c-0.074-0.147,0.045-0.536,0.189-0.624C244.524,123.439,247.635,121.595,250.758,119.735z"/>
<path fill-rule="evenodd" clip-rule="evenodd" fill="#DBDA48" d="M197.407,81.847c1.559-3.48,3.053-6.825,4.598-10.274
	c1.332,0.69,2.664,1.345,3.959,2.065c1.738,0.967,1.77,1.01,0.879,2.768c-1.32,2.602-2.701,5.177-4.086,7.748
	c-0.09,0.168-0.506,0.346-0.643,0.276C200.542,83.602,198.993,82.728,197.407,81.847z"/>
<path fill-rule="evenodd" clip-rule="evenodd" fill="#E9E799" d="M170.176,72.061c-1.588-0.192-3.096-0.368-4.6-0.553
	c-0.695-0.087-1.143-0.339-1.072-1.191c0.248-3.164,0.43-6.333,0.695-9.495c0.021-0.26,0.498-0.709,0.736-0.692
	c1.244,0.085,2.48,0.29,3.719,0.46c0.15,0.022,0.293,0.119,0.443,0.145c0.484,0.082,1.338,0.044,1.393,0.238
	c0.184,0.638,0.148,1.37,0.064,2.045c-0.137,1.046-0.42,2.072-0.576,3.115C170.686,68.107,170.44,70.088,170.176,72.061z"/>
<path fill-rule="evenodd" clip-rule="evenodd" fill="#E9E799" d="M232.75,94.669c1.41,1.477,2.703,2.8,3.959,4.158
	c0.355,0.385,0.338,0.761-0.125,1.188c-2.412,2.209-4.775,4.468-7.178,6.686c-0.154,0.141-0.613,0.212-0.715,0.108
	c-1.148-1.198-2.266-2.427-3.361-3.675c-0.115-0.126-0.117-0.53-0.006-0.65C227.772,99.881,230.239,97.302,232.75,94.669z"/>
<path fill-rule="evenodd" clip-rule="evenodd" fill="#E9E799" d="M180.459,63.185c0.729,0.162,1.424,0.281,2.094,0.479
	c1.027,0.301,2.033,0.668,3.055,0.981c0.947,0.294,1.123,0.587,0.852,1.507c-0.834,2.834-1.662,5.67-2.504,8.502
	c-0.104,0.352-0.271,0.682-0.436,1.086c-0.969-0.256-1.961-0.502-2.943-0.788c-0.609-0.174-1.189-0.49-1.811-0.593
	c-0.58-0.096-0.648-0.354-0.545-0.828c0.348-1.568,0.693-3.14,1.031-4.711c0.266-1.244,0.512-2.492,0.773-3.737
	C180.155,64.479,180.299,63.882,180.459,63.185z"/>
<path fill-rule="evenodd" clip-rule="evenodd" fill="#DBDA48" d="M171.268,72.406c0.242-1.544,0.479-3.055,0.715-4.563
	c0.141-0.896,0.295-1.792,0.414-2.689c0.141-1.055,0.219-2.118,0.408-3.166c0.039-0.211,0.459-0.523,0.678-0.504
	c0.867,0.076,1.732,0.236,2.584,0.422c0.998,0.217,1.984,0.492,3.184,0.793c-0.137,0.846-0.254,1.775-0.443,2.69
	c-0.299,1.457-0.658,2.897-0.979,4.351c-0.258,1.15-0.43,2.326-0.797,3.439c-0.078,0.236-0.863,0.424-1.262,0.344
	C174.325,73.235,172.907,72.825,171.268,72.406z"/>
<path fill-rule="evenodd" clip-rule="evenodd" fill="#E9E799" d="M114.991,76.058c-1.627,0.688-3.15,1.351-4.692,1.957
	c-0.186,0.073-0.632-0.1-0.726-0.279c-1.202-2.328-2.365-4.678-3.533-7.021c-0.407-0.818-0.806-1.64-1.279-2.603
	c1.014-0.427,1.98-0.843,2.952-1.247c0.792-0.332,1.659-0.541,2.368-0.998c0.727-0.463,0.912,0.041,1.097,0.45
	c0.462,1.03,0.847,2.1,1.271,3.148c0.719,1.789,1.448,3.568,2.159,5.36C114.765,75.222,114.865,75.644,114.991,76.058z"/>
<path fill-rule="evenodd" clip-rule="evenodd" fill="#E9E799" d="M195.053,68.258c2.014,0.907,3.982,1.796,5.943,2.679
	c-0.869,1.957-1.697,3.819-2.52,5.684c-0.629,1.427-1.236,2.864-1.891,4.28c-0.062,0.134-0.436,0.261-0.582,0.197
	c-1.383-0.579-2.754-1.194-4.121-1.814c-0.508-0.231-0.754-0.617-0.539-1.189C192.569,74.84,193.795,71.585,195.053,68.258z"/>
<path fill-rule="evenodd" clip-rule="evenodd" fill="#DBDA48" d="M231.946,93.759c-0.156,0.191-0.275,0.357-0.418,0.508
	c-2.262,2.397-4.527,4.79-6.787,7.187c-0.309,0.329-0.627,0.414-0.984,0.074c-1.066-1.021-2.127-2.05-3.201-3.062
	c-0.357-0.337-0.488-0.545-0.076-1.029c2.176-2.567,4.283-5.191,6.439-7.775c0.113-0.135,0.557-0.199,0.666-0.1
	c1.383,1.271,2.736,2.581,4.098,3.883C231.764,93.522,231.829,93.62,231.946,93.759z"/>
<path fill-rule="evenodd" clip-rule="evenodd" fill="#E9E799" d="M61.807,119.166c-0.197,0.353-0.343,0.608-0.486,0.868
	c-0.59,1.055-1.2,2.1-1.758,3.172c-0.327,0.635-0.537,0.902-1.375,0.477c-2.809-1.43-5.683-2.746-8.57-4.009
	c-0.74-0.323-0.614-0.735-0.386-1.163c0.754-1.422,1.607-2.787,2.349-4.217c0.331-0.638,0.749-0.572,1.208-0.319
	c2.799,1.54,5.586,3.098,8.371,4.661C61.387,118.763,61.568,118.967,61.807,119.166z"/>
<path fill-rule="evenodd" clip-rule="evenodd" fill="#E9E799" d="M221.565,84.264c1.688,1.415,3.285,2.756,4.9,4.11
	c-2.268,2.732-4.486,5.367-6.65,8.047c-0.379,0.471-0.682,0.583-1.111,0.223c-1.086-0.906-2.115-1.883-3.236-2.74
	c-0.52-0.398-0.492-0.781-0.209-1.184c1.82-2.575,3.662-5.136,5.512-7.691C220.975,84.743,221.282,84.53,221.565,84.264z"/>
<path fill-rule="evenodd" clip-rule="evenodd" fill="#DBDA48" d="M237.889,100.47c1.332,1.626,2.594,3.146,3.812,4.693
	c0.102,0.132,0.033,0.579-0.105,0.695c-2.627,2.166-5.27,4.309-7.938,6.422c-0.139,0.112-0.629,0.012-0.775-0.151
	c-1.008-1.128-2-2.27-2.906-3.475c-0.15-0.197,0.006-0.861,0.24-1.083C232.713,105.214,235.25,102.897,237.889,100.47z"/>
<path fill-rule="evenodd" clip-rule="evenodd" fill="#DBDA48" d="M237.643,119.485c3.113-2.172,6.141-4.287,9.268-6.469
	c1.043,1.705,2.117,3.422,3.129,5.176c0.088,0.154-0.135,0.659-0.346,0.791c-2.734,1.699-5.49,3.37-8.256,5.021
	c-0.449,0.268-0.926,0.302-1.262-0.27C239.354,122.331,238.514,120.942,237.643,119.485z"/>
<path fill-rule="evenodd" clip-rule="evenodd" fill="#DBDA48" d="M111.98,65.335c1.923-0.688,3.792-1.373,5.685-2.002
	c0.188-0.062,0.652,0.165,0.716,0.349c0.728,2.125,1.389,4.271,2.094,6.407c0.336,1.017,0.714,2.022,1.085,3.025
	c0.2,0.547,0.062,0.912-0.512,1.088c-1.402,0.428-2.844,0.756-4.184,1.331c-0.565,0.243-0.725-0.065-0.819-0.288
	c-0.841-1.972-1.633-3.967-2.442-5.956C113.086,68.019,112.562,66.751,111.98,65.335z"/>
<path fill-rule="evenodd" clip-rule="evenodd" fill="#E9E799" d="M97.327,84.441c-1.985-2.907-3.932-5.743-5.859-8.591
	c-0.294-0.437-0.431-0.811,0.255-1.172c1.451-0.759,2.836-1.645,4.245-2.482c0.47-0.281,0.716-0.32,1.067,0.299
	c1.563,2.785,3.23,5.511,4.865,8.256c0.364,0.608,0.161,1.047-0.406,1.366C100.13,82.886,98.759,83.645,97.327,84.441z"/>
<path fill-rule="evenodd" clip-rule="evenodd" fill="#DBDA48" d="M209.274,89.179c1.932-3.127,3.781-6.139,5.664-9.128
	c0.098-0.155,0.576-0.266,0.719-0.169c1.43,0.978,2.822,2.011,4.24,3.004c0.49,0.344,0.529,0.688,0.188,1.159
	c-1.256,1.72-2.502,3.443-3.74,5.179c-0.582,0.814-1.146,1.643-1.703,2.479c-0.381,0.576-0.738,0.812-1.408,0.293
	C211.967,91.023,210.637,90.14,209.274,89.179z"/>
<path fill-rule="evenodd" clip-rule="evenodd" fill="#E9E799" d="M119.349,62.947c2.091-0.513,3.878-0.917,5.641-1.403
	c0.644-0.176,0.854,0.119,0.984,0.604c0.55,2.058,1.082,4.119,1.622,6.18c0.273,1.043,0.532,2.094,0.829,3.132
	c0.15,0.532-0.078,0.915-0.517,1.025c-1.614,0.411-3.243,0.752-5.001,1.149C121.706,70.025,120.541,66.526,119.349,62.947z"/>
<path fill-rule="evenodd" clip-rule="evenodd" fill="#DBDA48" d="M187.815,65.415c2.092,0.777,4.039,1.501,6.154,2.287
	c-1.312,3.578-2.6,7.075-3.889,10.588c-1.785-0.649-3.492-1.275-5.422-1.98C185.696,72.731,186.741,69.124,187.815,65.415z"/>
<path fill-rule="evenodd" clip-rule="evenodd" fill="#E9E799" d="M208.946,75.431c1.502,0.93,3.023,1.879,4.551,2.818
	c0.566,0.352,0.783,0.624,0.314,1.35c-1.727,2.683-3.33,5.443-5.008,8.158c-0.229,0.37-0.467,0.675-1.078,0.221
	c-1.182-0.883-2.521-1.557-3.764-2.363c-0.174-0.115-0.311-0.58-0.221-0.756c1.535-3.012,3.104-6.002,4.682-8.992
	C208.514,75.692,208.745,75.592,208.946,75.431z"/>
<path fill-rule="evenodd" clip-rule="evenodd" fill="#E9E799" d="M90.377,88.781c-1.415,1.129-2.795,2.24-4.204,3.315
	c-0.124,0.094-0.528,0.02-0.649-0.116c-2.269-2.499-4.521-5.012-6.748-7.548c-0.137-0.158-0.139-0.676-0.004-0.79
	c1.338-1.142,2.708-2.248,4.091-3.334c0.465-0.362,0.88-0.101,1.188,0.292c1.339,1.729,2.668,3.467,4.004,5.195
	C88.792,86.75,89.535,87.701,90.377,88.781z"/>
<path fill-rule="evenodd" clip-rule="evenodd" fill="#E9E799" d="M69.888,107.688c-0.093,0.204-0.132,0.357-0.219,0.475
	c-0.885,1.181-1.807,2.334-2.654,3.543c-0.367,0.521-0.788,0.499-1.192,0.236c-2.723-1.749-5.418-3.533-8.133-5.292
	c-0.437-0.284-0.62-0.485-0.213-1.005c1.051-1.334,2.029-2.729,3.021-4.111c0.273-0.381,0.464-0.525,0.939-0.17
	c2.549,1.932,5.135,3.811,7.707,5.712C69.402,107.267,69.64,107.481,69.888,107.688z"/>
<path fill-rule="evenodd" clip-rule="evenodd" fill="#DBDA48" d="M84.51,79.28c1.595-1.08,3.105-2.043,4.545-3.103
	c0.678-0.499,1.069-0.339,1.47,0.265c1.736,2.605,3.46,5.218,5.225,7.806c0.388,0.567,0.413,0.835-0.253,1.22
	c-1.224,0.713-2.395,1.526-3.532,2.372c-0.468,0.346-0.67,0.196-0.949-0.165C88.863,84.888,86.703,82.108,84.51,79.28z"/>
<path fill-rule="evenodd" clip-rule="evenodd" fill="#DBDA48" d="M61.749,100.106c1.376-1.58,2.695-3.115,4.062-4.605
	c0.094-0.105,0.607,0.024,0.804,0.189c1.716,1.437,3.402,2.908,5.1,4.367c0.736,0.629,1.458,1.283,2.232,1.867
	c0.536,0.404,0.505,0.773,0.121,1.225c-0.937,1.104-1.846,2.231-2.833,3.287c-0.151,0.161-0.764,0.109-1.005-0.063
	C67.43,104.341,64.662,102.267,61.749,100.106z"/>
<path fill-rule="evenodd" clip-rule="evenodd" fill="#DBDA48" d="M65.667,113.337c-0.863,1.357-1.678,2.653-2.505,3.94
	c-0.363,0.565-0.738,0.737-1.438,0.334c-2.697-1.554-5.442-3.019-8.168-4.524c-0.261-0.143-0.5-0.323-0.794-0.515
	c1.029-1.619,2.026-3.181,3.018-4.743c0.345-0.54,0.622-0.625,1.249-0.205c2.531,1.702,5.137,3.295,7.705,4.94
	C65.077,112.788,65.371,113.091,65.667,113.337z"/>
<path fill-rule="evenodd" clip-rule="evenodd" fill="#DBDA48" d="M48.162,120.302c3.447,1.616,6.842,3.209,10.257,4.814
	c-0.772,1.598-1.547,3.027-2.153,4.525c-0.253,0.627-0.635,0.584-1.006,0.447c-2.263-0.846-4.507-1.738-6.758-2.617
	c-0.824-0.32-1.631-0.697-2.478-0.957c-0.552-0.17-0.604-0.27-0.327-0.826C46.564,123.951,47.324,122.157,48.162,120.302z"/>
<path fill-rule="evenodd" clip-rule="evenodd" fill="#E9E799" d="M66.916,94.359c1.358-1.395,2.685-2.704,3.945-4.075
	c0.463-0.506,0.764-0.437,1.204-0.025c2.529,2.363,5.073,4.711,7.65,7.102c-1.521,1.561-2.826,2.898-4.216,4.323
	C72.675,99.274,69.843,96.857,66.916,94.359z"/>
<path fill-rule="evenodd" clip-rule="evenodd" fill="#DBDA48" d="M72.306,89.069c1.655-1.508,3.09-2.838,4.557-4.139
	c0.369-0.327,0.655-0.113,0.966,0.248c1.642,1.871,3.328,3.7,4.989,5.553c0.646,0.721,1.278,1.456,1.977,2.249
	c-1.265,1.157-2.511,2.335-3.81,3.445c-0.159,0.136-0.713,0.04-0.909-0.137C77.492,93.923,74.939,91.527,72.306,89.069z"/>
<path fill-rule="evenodd" clip-rule="evenodd" fill="#676767" d="M150.538,71.511c1.768-0.032,3.404-0.089,5.039-0.059
	c0.229,0.004,0.639,0.445,0.643,0.691c0.053,2.904,0.074,5.812,0.043,8.717c-0.012,0.962-0.193,1.921-0.309,2.973
	c-1.412,0.025-2.885,0.076-4.355,0.046c-0.16-0.003-0.43-0.466-0.447-0.728c-0.084-1.261-0.072-2.529-0.145-3.788
	c-0.131-2.292-0.299-4.579-0.447-6.869C150.538,72.185,150.545,71.873,150.538,71.511z"/>
<path fill-rule="evenodd" clip-rule="evenodd" fill="#3A3A3A" d="M162.114,84.625c-1.545-0.153-2.973-0.269-4.393-0.457
	c-0.191-0.023-0.482-0.4-0.479-0.611c0.023-1.632,0.141-3.261,0.162-4.895c0.027-1.863-0.021-3.727-0.02-5.591
	c0.002-1.456,0.254-1.576,1.678-1.278c0.941,0.198,1.932,0.19,2.898,0.202c0.828,0.008,1.213,0.277,1.125,1.174
	c-0.326,3.336-0.617,6.679-0.916,10.018C162.133,83.591,162.137,83.999,162.114,84.625z"/>
<path fill-rule="evenodd" clip-rule="evenodd" fill="#3A3A3A" d="M143.59,71.577c2.02-0.037,3.839-0.069,5.73-0.104
	c0.164,1.934,0.371,3.894,0.486,5.859c0.107,1.828,0.086,3.661,0.191,5.492c0.047,0.845-0.25,1.113-1.073,1.09
	c-1.008-0.026-2.019,0.055-3.027,0.12c-0.613,0.039-0.81-0.226-0.868-0.818c-0.301-3.032-0.63-6.061-0.978-9.085
	C143.955,73.31,143.758,72.498,143.59,71.577z"/>
<path fill-rule="evenodd" clip-rule="evenodd" fill="#676767" d="M142.549,71.548c0.174,1.771,0.312,3.455,0.511,5.133
	c0.247,2.084,0.52,4.166,0.831,6.244c0.141,0.939-0.206,1.203-1.115,1.188c-0.764-0.01-1.541,0.162-2.298,0.324
	c-1.113,0.239-1.366-0.005-1.56-1.17c-0.302-1.842-0.735-3.657-1.095-5.49c-0.199-1.01-0.358-2.028-0.548-3.041
	c-0.098-0.518-0.225-1.028-0.34-1.543c-0.123-0.537-0.169-1.039,0.576-1.119C139.132,71.901,140.753,71.735,142.549,71.548z"/>
<path fill-rule="evenodd" clip-rule="evenodd" fill="#676767" d="M164.297,72.515c1.896,0.264,3.721,0.519,5.664,0.788
	c-0.617,4.08-1.225,8.079-1.867,12.307c-1.584-0.231-3.18-0.466-4.865-0.712C163.588,80.747,163.932,76.749,164.297,72.515z"/>
<path fill-rule="evenodd" clip-rule="evenodd" fill="#3A3A3A" d="M85.704,94.065c0.062,0.053,0.158,0.111,0.229,0.193
	c2.502,2.816,5.01,5.635,7.482,8.473c0.15,0.174,0.161,0.709,0.017,0.857c-0.888,0.904-1.825,1.762-2.787,2.59
	c-0.116,0.1-0.543,0.017-0.69-0.127c-2.748-2.639-5.478-5.3-8.195-7.973c-0.125-0.125-0.177-0.555-0.083-0.643
	c1.137-1.047,2.308-2.062,3.478-3.078C85.291,94.242,85.479,94.183,85.704,94.065z"/>
<path fill-rule="evenodd" clip-rule="evenodd" fill="#3A3A3A" d="M130.062,73.341c1.825-0.348,3.654-0.693,5.588-1.062
	c0.791,4.139,1.557,8.133,2.322,12.141c-1.452,0.338-2.734,0.646-4.022,0.935c-0.789,0.176-0.908-0.416-1.055-0.966
	c-0.511-1.916-1.038-3.829-1.531-5.747C130.915,76.901,130.507,75.158,130.062,73.341z"/>
<path fill-rule="evenodd" clip-rule="evenodd" fill="#3A3A3A" d="M173.911,87.079c-1.064-0.24-1.996-0.45-2.926-0.665
	c-0.086-0.021-0.158-0.105-0.242-0.128c-0.438-0.106-1.195-0.116-1.252-0.323c-0.168-0.611-0.131-1.31-0.045-1.958
	c0.139-1.045,0.424-2.074,0.572-3.121c0.279-1.947,0.492-3.908,0.764-5.857c0.061-0.425,0.25-0.833,0.393-1.293
	c1.652,0.348,3.326,0.641,4.947,1.115c0.223,0.064,0.336,1.058,0.238,1.573c-0.398,2.101-0.889,4.187-1.371,6.271
	C174.663,84.104,174.297,85.505,173.911,87.079z"/>
<path fill-rule="evenodd" clip-rule="evenodd" fill="#676767" d="M202.915,86.45c1.471,0.908,2.797,1.768,4.164,2.55
	c0.541,0.307,0.541,0.678,0.297,1.069c-1.938,3.152-3.891,6.293-5.885,9.406c-0.123,0.195-0.719,0.302-0.947,0.177
	c-1-0.549-1.939-1.206-2.916-1.803c-0.557-0.337-0.416-0.802-0.201-1.212c1.459-2.777,2.938-5.543,4.42-8.31
	C202.184,87.697,202.551,87.083,202.915,86.45z"/>
<path fill-rule="evenodd" clip-rule="evenodd" fill="#3A3A3A" d="M66.788,113.938c1.658,1.039,3.291,2.039,4.902,3.074
	c1.616,1.036,3.187,2.147,4.828,3.139c0.649,0.393,0.593,0.715,0.252,1.232c-0.587,0.879-1.101,1.811-1.745,2.646
	c-0.189,0.245-0.817,0.443-1.061,0.312c-3.197-1.705-6.362-3.477-9.541-5.217c-0.567-0.311-0.639-0.645-0.27-1.183
	C65.029,116.659,65.865,115.347,66.788,113.938z"/>
<path fill-rule="evenodd" clip-rule="evenodd" fill="#3A3A3A" d="M228.883,131.53c-0.641-1.119-1.166-2.283-1.918-3.271
	c-0.533-0.703-0.367-1.086,0.203-1.484c2.48-1.738,4.973-3.457,7.459-5.184c0.496-0.346,0.988-0.695,1.488-1.036
	c0.369-0.251,0.588-0.255,0.848,0.231c0.621,1.158,1.295,2.293,2.045,3.371c0.527,0.76,0.25,1.119-0.414,1.514
	C235.364,127.603,232.149,129.558,228.883,131.53z"/>
<path fill-rule="evenodd" clip-rule="evenodd" fill="#3A3A3A" d="M114.681,90.851c-1.516,0.741-2.9,1.421-4.344,2.125
	c-1.462-2.486-2.935-4.987-4.401-7.492c-0.461-0.789-0.877-1.604-1.379-2.364c-0.442-0.677-0.273-1.048,0.417-1.37
	c1.354-0.637,2.687-1.316,4.2-2.062C111.007,83.402,112.834,87.11,114.681,90.851z"/>
<path fill-rule="evenodd" clip-rule="evenodd" fill="#676767" d="M190.68,80.042c1.795,0.805,3.488,1.564,5.199,2.332
	c-1.6,3.613-3.17,7.111-4.688,10.634c-0.254,0.587-0.627,0.606-1.041,0.435c-1.092-0.443-2.18-0.911-3.215-1.471
	c-0.223-0.121-0.389-0.721-0.289-0.996c0.994-2.764,2.055-5.502,3.09-8.25C190.047,81.895,190.327,81.05,190.68,80.042z"/>
<path fill-rule="evenodd" clip-rule="evenodd" fill="#3A3A3A" d="M196.872,83.05c1.557,0.803,3.059,1.542,4.514,2.364
	c0.199,0.112,0.338,0.726,0.217,0.956c-1.664,3.221-3.379,6.412-5.076,9.615c-0.258,0.485-0.615,0.617-1.086,0.377
	c-0.963-0.487-1.922-0.99-2.871-1.499c-0.564-0.302-0.725-0.63-0.4-1.327C193.766,90.101,195.28,86.622,196.872,83.05z"/>
<path fill-rule="evenodd" clip-rule="evenodd" fill="#3A3A3A" d="M126.099,86.866c-1.285,0.459-2.413,0.821-3.506,1.265
	c-0.79,0.319-1.135,0.161-1.471-0.675c-0.807-2.013-1.656-4.007-2.488-6.014c-0.492-1.189-0.974-2.386-1.466-3.578
	c-0.094-0.226-0.218-0.438-0.419-0.834c0.545-0.246,1.087-0.533,1.661-0.736c0.958-0.34,1.928-0.652,2.906-0.926
	c0.606-0.172,0.979-0.102,1.2,0.71c0.494,1.801,1.205,3.546,1.8,5.32C124.932,83.229,125.514,85.069,126.099,86.866z"/>
<path fill-rule="evenodd" clip-rule="evenodd" fill="#676767" d="M109.178,93.366c-1.362,0.812-2.688,1.606-4.135,2.471
	c-0.668-0.951-1.354-1.897-2.01-2.865c-1.501-2.209-2.969-4.445-4.495-6.641c-0.434-0.629-0.272-1.009,0.296-1.344
	c1.13-0.661,2.27-1.311,3.402-1.972c0.788-0.456,1.043,0.165,1.333,0.667C105.408,86.844,107.236,90.013,109.178,93.366z"/>
<path fill-rule="evenodd" clip-rule="evenodd" fill="#676767" d="M175.036,87.627c0.898-4.071,1.773-8.05,2.695-12.235
	c1.82,0.523,3.629,1.044,5.465,1.568c-0.828,2.938-1.641,5.834-2.461,8.721c-0.225,0.799-0.479,1.588-0.703,2.385
	c-0.205,0.723-0.723,0.812-1.314,0.629c-0.986-0.305-1.955-0.666-2.934-0.988C175.61,87.65,175.413,87.663,175.036,87.627z"/>
<path fill-rule="evenodd" clip-rule="evenodd" fill="#676767" d="M110.249,79.41c1.379-0.584,2.635-1.116,3.894-1.647
	c0.14-0.059,0.29-0.099,0.426-0.166c0.909-0.451,1.105-0.324,1.487,0.628c1.376,3.426,2.791,6.837,4.253,10.402
	c-1.244,0.538-2.495,1.114-3.775,1.616c-0.524,0.205-0.834-0.006-1.118-0.613c-1.526-3.26-3.149-6.477-4.741-9.706
	C110.609,79.795,110.486,79.692,110.249,79.41z"/>
<path fill-rule="evenodd" clip-rule="evenodd" fill="#676767" d="M60.212,124.612c0.946-1.707,1.825-3.295,2.742-4.948
	c1.485,0.792,2.936,1.548,4.37,2.336c1.945,1.067,3.867,2.185,5.827,3.225c0.546,0.29,0.576,0.665,0.364,1.077
	c-0.563,1.094-1.174,2.173-1.812,3.231c-0.088,0.145-0.492,0.247-0.659,0.169c-3.137-1.439-6.257-2.906-9.382-4.373
	C61.196,125.108,60.737,124.872,60.212,124.612z"/>
<path fill-rule="evenodd" clip-rule="evenodd" fill="#676767" d="M127.268,86.702c-0.854-2.627-1.672-5.195-2.523-7.752
	c-0.319-0.957-0.726-1.889-1.074-2.835c-0.313-0.854-0.052-1.368,0.739-1.554c1.441-0.34,2.877-0.691,4.42-1.062
	c0.289,1.027,0.582,2.033,0.856,3.039c0.521,1.903,1.046,3.803,1.537,5.713c0.224,0.872,0.417,1.757,0.535,2.645
	c0.034,0.25-0.188,0.727-0.385,0.783C130.049,86.06,128.699,86.356,127.268,86.702z"/>
<path fill-rule="evenodd" clip-rule="evenodd" fill="#676767" d="M80.464,98.539c2.786,2.661,5.516,5.286,8.271,7.89
	c0.549,0.517,0.521,0.885-0.005,1.408c-0.89,0.883-1.706,1.841-2.653,2.876c-1.113-0.96-2.135-1.854-3.169-2.731
	c-1.942-1.643-3.889-3.284-5.841-4.915c-0.484-0.401-0.633-0.726-0.074-1.226C78.173,100.774,79.303,99.651,80.464,98.539z"/>
<path fill-rule="evenodd" clip-rule="evenodd" fill="#676767" d="M232.848,114.465c1.088,1.563,2.135,3.066,3.236,4.645
	c-1.312,0.94-2.611,1.899-3.938,2.821c-1.773,1.23-3.613,2.37-5.328,3.672c-0.734,0.56-1.139,0.364-1.564-0.214
	c-0.561-0.757-1.031-1.583-1.613-2.319c-0.436-0.553-0.455-0.873,0.152-1.344c2.277-1.77,4.506-3.606,6.752-5.414
	C231.274,115.726,232.004,115.141,232.848,114.465z"/>
<path fill-rule="evenodd" clip-rule="evenodd" fill="#3A3A3A" d="M184.241,77.532c0.977,0.32,1.906,0.613,2.826,0.93
	c0.549,0.19,1.07,0.466,1.627,0.611c0.789,0.203,0.889,0.711,0.658,1.344c-1.188,3.276-2.396,6.543-3.598,9.816
	c-0.252,0.684-0.717,0.865-1.385,0.612c-0.902-0.345-1.803-0.689-2.709-1.019c-0.689-0.252-0.889-0.509-0.561-1.345
	c0.637-1.62,1.016-3.345,1.488-5.026C183.125,81.562,183.649,79.665,184.241,77.532z"/>
<path fill-rule="evenodd" clip-rule="evenodd" fill="#3A3A3A" d="M232.266,113.417c-2.625,2.091-5.143,4.094-7.658,6.102
	c-0.521,0.418-0.996,0.901-1.549,1.267c-0.205,0.136-0.719,0.147-0.855,0c-0.803-0.899-1.57-1.835-2.264-2.817
	c-0.152-0.217-0.09-0.828,0.104-1.011c2.615-2.472,5.273-4.899,7.918-7.339c0.479-0.441,0.77-0.705,1.305,0.108
	C230.124,111.034,231.235,112.175,232.266,113.417z"/>
<path fill-rule="evenodd" clip-rule="evenodd" fill="#3A3A3A" d="M92.222,89.228c1.575-1.078,3.111-2.133,4.706-3.229
	c2.346,3.477,4.646,6.885,6.967,10.322c-1.166,0.782-2.317,1.438-3.327,2.27c-0.574,0.469-0.869,0.281-1.191-0.131
	c-1.342-1.717-2.657-3.457-3.99-5.186C94.384,91.982,93.371,90.694,92.222,89.228z"/>
<path fill-rule="evenodd" clip-rule="evenodd" fill="#676767" d="M210.612,107.601c-1.18-0.947-2.307-1.824-3.387-2.752
	c-0.129-0.109-0.127-0.57-0.008-0.748c1.283-1.889,2.596-3.756,3.912-5.621c0.824-1.163,1.674-2.311,2.512-3.467
	c0.127-0.18,0.254-0.357,0.436-0.62c1.373,1.12,2.641,2.15,3.904,3.185c0.441,0.355,0.355,0.668,0.006,1.086
	c-2.049,2.439-4.07,4.902-6.096,7.359C211.485,106.512,211.088,107.011,210.612,107.601z"/>
<path fill-rule="evenodd" clip-rule="evenodd" fill="#3A3A3A" d="M75.603,103.386c0.251,0.189,0.447,0.322,0.627,0.474
	c2.634,2.247,5.247,4.521,7.916,6.729c0.664,0.546,0.756,0.936,0.175,1.553c-0.726,0.771-1.387,1.604-2.131,2.354
	c-0.16,0.162-0.665,0.228-0.839,0.1c-2.901-2.108-5.76-4.275-8.663-6.381c-0.665-0.481-0.755-0.828-0.185-1.434
	c0.877-0.937,1.69-1.932,2.537-2.891C75.19,103.718,75.379,103.583,75.603,103.386z"/>
<path fill-rule="evenodd" clip-rule="evenodd" fill="#676767" d="M67.598,112.997c1.043-1.403,2.05-2.74,3.031-4.093
	c0.304-0.415,0.478-0.345,0.872-0.048c2.911,2.199,5.857,4.351,8.791,6.516c0.177,0.13,0.362,0.248,0.667,0.455
	c-0.83,1.104-1.628,2.24-2.521,3.296c-0.192,0.228-0.845,0.374-1.077,0.226c-2.87-1.799-5.703-3.66-8.543-5.508
	C68.439,113.594,68.075,113.325,67.598,112.997z"/>
<path fill-rule="evenodd" clip-rule="evenodd" fill="#3A3A3A" d="M223.364,102.825c-0.162,0.179-0.271,0.307-0.389,0.428
	c-2.555,2.691-5.109,5.381-7.664,8.076c-0.357,0.375-0.621,0.477-1.047,0.01c-0.738-0.814-1.611-1.506-2.342-2.323
	c-0.193-0.219-0.25-0.848-0.084-1.058c2.26-2.821,4.572-5.599,6.859-8.396c0.434-0.529,0.781-0.65,1.309-0.084
	c0.922,0.987,1.91,1.908,2.871,2.855C223.022,102.476,223.167,102.626,223.364,102.825z"/>
<path fill-rule="evenodd" clip-rule="evenodd" fill="#676767" d="M86.647,93.256c1.405-1.055,2.74-2.018,4.016-3.05
	c0.461-0.371,0.623-0.266,0.939,0.147c2.2,2.868,4.415,5.727,6.664,8.558c0.401,0.509,0.453,0.795-0.103,1.19
	c-0.854,0.611-1.698,1.242-2.469,1.952c-0.543,0.5-0.863,0.365-1.286-0.111C91.854,99.068,89.284,96.203,86.647,93.256z"/>
<path fill-rule="evenodd" clip-rule="evenodd" fill="#3A3A3A" d="M213.239,93.571c-2.26,3.135-4.502,6.145-6.621,9.241
	c-0.586,0.856-0.963,0.676-1.572,0.187c-0.732-0.587-1.459-1.201-2.262-1.674c-0.604-0.355-0.6-0.734-0.307-1.211
	c1.914-3.098,3.83-6.194,5.785-9.265c0.133-0.204,0.715-0.378,0.883-0.263C210.536,91.54,211.877,92.565,213.239,93.571z"/>
<path fill-rule="evenodd" clip-rule="evenodd" fill="#676767" d="M227.971,107.971c-0.139,0.161-0.225,0.281-0.33,0.376
	c-2.139,1.969-4.279,3.932-6.422,5.899c-0.627,0.575-1.23,1.181-1.895,1.714c-0.162,0.131-0.621,0.143-0.754,0.014
	c-0.822-0.797-1.561-1.679-2.383-2.478c-0.559-0.546-0.365-0.946,0.076-1.405c2.135-2.219,4.256-4.445,6.381-6.672
	c0.105-0.109,0.207-0.219,0.309-0.335c1.154-1.325,1.162-1.335,2.385-0.026c0.773,0.822,1.51,1.676,2.262,2.52
	C227.711,107.698,227.829,107.819,227.971,107.971z"/>
<g>
	<path fill="#3A3A3A" d="M102.542,124.236h-1.156c0,0,0.153-4.501,0.153-8.81c0-0.751-0.041-2.34-0.041-2.34h0.823
		c0,0,3.273,4.836,5.825,8.264v-4.334c0-3.108-0.167-3.93-0.167-3.93h1.171c0,0-0.154,4.083-0.154,8.823
		c0,0.459,0.028,2.326,0.028,2.326h-0.81c0,0-3.665-5.422-5.783-8.224c0,1.366,0,4.294,0,4.294
		C102.431,123.429,102.542,124.236,102.542,124.236L102.542,124.236z"/>
	<path fill="#3A3A3A" d="M120.759,118.634c0-3.191-1.256-5.074-3.499-5.074c-2.244,0-3.499,1.883-3.499,5.074
		c0,3.22,1.214,5.13,3.499,5.13C119.546,123.764,120.759,121.854,120.759,118.634L120.759,118.634z M122.458,118.647
		c0,3.415-2.132,5.784-5.198,5.784c-3.067,0-5.199-2.369-5.199-5.784c0-3.428,2.05-5.756,5.199-5.756
		C120.411,112.892,122.458,115.22,122.458,118.647L122.458,118.647z"/>
	<path fill="#3A3A3A" d="M128.999,118.605c0.993,1.938,3.165,5.631,3.165,5.631h-1.802c0,0-1.283-2.578-3.271-6.132h0.411
		c1.694,0,2.451-0.739,2.451-2.217c0-1.281-0.729-2.16-2.132-2.16c-0.411,0-1.007,0.084-1.007,0.084s-0.027,0.627-0.027,2.076v4.628
		c0,2.48,0.106,3.721,0.106,3.721h-1.59c0,0,0.119-4.391,0.119-6.676c0-1.589-0.119-4.474-0.119-4.474h3.219
		c1.881,0,2.913,0.947,2.913,2.605C131.435,117.17,130.548,118.174,128.999,118.605L128.999,118.605z"/>
	<path fill="#3A3A3A" d="M138.031,113.755c-0.865,0-1.561,0.069-1.561,0.069s-0.029,2.845-0.029,4.823
		c0,2.286,0.057,4.809,0.057,4.809s0.586,0.111,1.323,0.111c2.872,0,4.322-1.812,4.322-5.073
		C142.143,115.456,140.749,113.755,138.031,113.755L138.031,113.755z M138.323,124.236h-3.484c0,0,0.152-3.526,0.152-5.589
		c0-2.021-0.152-5.561-0.152-5.561h4.001c3.262,0,4.976,1.839,4.976,5.366C143.815,122.021,141.794,124.236,138.323,124.236
		L138.323,124.236z"/>
	<path fill="#3A3A3A" d="M151.051,121.339c-0.193-0.949-0.865-1.533-2.077-2.218c-1.547-0.905-2.467-1.532-2.635-3.024
		c-0.181-1.853,1.311-3.205,3.206-3.205c1.061,0,1.98,0.209,2.369,0.334v1.323c0,0-0.877-0.989-2.284-0.989
		c-1.102,0-2.037,0.613-2.037,1.729c0,0.976,0.768,1.436,2.119,2.229c1.8,1.061,2.706,1.91,2.706,3.513
		c0,1.98-1.619,3.401-3.569,3.401c-1.046,0-1.896-0.166-2.37-0.334v-1.323c0,0,0.948,0.989,2.536,0.989
		C150.438,123.764,151.317,122.62,151.051,121.339L151.051,121.339z"/>
	<path fill="#3A3A3A" d="M161.967,114.146c0,0-0.822-0.266-2.131-0.266h-0.699c0,0-0.041,2.399-0.041,3.248
		c0,3.109,0.154,7.108,0.154,7.108h-1.758c0,0,0.168-3.999,0.168-7.108c0-0.849-0.043-3.248-0.043-3.248h-0.695
		c-1.326,0-2.146,0.266-2.146,0.266v-1.059h7.191V114.146L161.967,114.146z"/>
	<path fill="#3A3A3A" d="M168.422,118.605c0.992,1.938,3.164,5.631,3.164,5.631h-1.801c0,0-1.285-2.578-3.271-6.132h0.412
		c1.695,0,2.449-0.739,2.449-2.217c0-1.281-0.729-2.16-2.133-2.16c-0.41,0-1.006,0.084-1.006,0.084s-0.025,0.627-0.025,2.076v4.628
		c0,2.48,0.105,3.721,0.105,3.721h-1.59c0,0,0.119-4.391,0.119-6.676c0-1.589-0.119-4.474-0.119-4.474h3.219
		c1.881,0,2.914,0.947,2.914,2.605C170.86,117.17,169.971,118.174,168.422,118.605L168.422,118.605z"/>
	<path fill="#3A3A3A" d="M182.098,118.634c0-3.191-1.254-5.074-3.496-5.074c-2.246,0-3.5,1.883-3.5,5.074
		c0,3.22,1.213,5.13,3.5,5.13C180.887,123.764,182.098,121.854,182.098,118.634L182.098,118.634z M183.799,118.647
		c0,3.415-2.135,5.784-5.197,5.784c-3.068,0-5.199-2.369-5.199-5.784c0-3.428,2.049-5.756,5.199-5.756
		C181.75,112.892,183.799,115.22,183.799,118.647L183.799,118.647z"/>
	<path fill="#3A3A3A" d="M195.354,124.236c0,0-0.027-5.06-0.307-7.903l-3.455,8.169c0,0-2.258-5.186-3.639-8.098
		c-0.293,2.954-0.377,7.832-0.377,7.832h-1.074c0,0,0.545-5.882,0.686-11.149h0.961c0,0,2.607,5.854,3.834,8.418
		c1.143-2.634,3.482-8.418,3.482-8.418h0.949c0,0,0.182,5.045,0.627,11.149H195.354L195.354,124.236z"/>
</g>
<rect x="19.139" y="137.561" fill="none" width="265.666" height="59"/>
<text transform="matrix(1 0 0 1 19.1392 178.1602)"><tspan x="0" y="0" fill="#3A3A3A" font-family="'BrandonGrotesque-Light'" font-size="58" letter-spacing="-2">D</tspan><tspan x="39.904" y="0" fill="#3A3A3A" font-family="'BrandonGrotesque-Light'" font-size="58">ATA LAB</tspan></text>
</svg>
